<?xml version="1.0" standalone="no"?>
<!DOCTYPE svg PUBLIC "-//W3C//DTD SVG 20010904//EN"
 "http://www.w3.org/TR/2001/REC-SVG-20010904/DTD/svg10.dtd">
<svg version="1.0" xmlns="http://www.w3.org/2000/svg"
 width="512.000000pt" height="512.000000pt" viewBox="0 0 512.000000 512.000000"
 preserveAspectRatio="xMidYMid meet">

<g transform="translate(0.000000,512.000000) scale(0.100000,-0.100000)"
fill="#000000" stroke="none">
<path d="M880 5105 c-456 -80 -801 -434 -869 -892 -15 -100 -15 -3206 0 -3306
70 -467 429 -826 896 -896 100 -15 3206 -15 3306 0 467 70 826 429 896 896 15
100 15 3206 0 3306 -70 467 -429 826 -896 896 -114 17 -3235 13 -3333 -4z
m1960 -719 c503 -83 946 -381 1212 -816 355 -580 340 -1317 -39 -1882 -157
-233 -380 -436 -627 -569 l-79 -42 6 39 c3 21 14 105 23 186 l18 148 55 36
c31 20 108 89 172 153 212 212 336 440 401 739 31 142 31 414 -1 562 -64 301
-186 527 -400 741 -214 214 -440 336 -741 400 -86 18 -137 22 -280 22 -143 0
-194 -4 -280 -22 -301 -64 -527 -186 -741 -400 -214 -214 -336 -440 -400 -741
-32 -148 -32 -420 -1 -562 65 -299 189 -527 401 -739 64 -64 141 -133 172
-153 l55 -36 18 -148 c9 -81 20 -165 23 -186 l6 -39 -79 42 c-657 354 -1019
1088 -900 1821 102 624 539 1150 1131 1363 152 55 259 78 465 101 65 8 325 -4
410 -18z m-110 -590 c101 -16 253 -62 335 -103 217 -108 420 -311 528 -528 13
-27 39 -93 56 -145 103 -305 69 -647 -89 -923 -45 -80 -157 -227 -171 -227 -5
0 -9 10 -9 23 0 41 -36 161 -70 236 l-33 72 36 72 c132 262 126 566 -17 807
-242 410 -758 551 -1156 316 -399 -236 -540 -712 -333 -1123 l36 -72 -33 -72
c-34 -75 -70 -195 -70 -236 0 -13 -4 -23 -9 -23 -14 0 -126 147 -171 227 -158
276 -192 618 -89 923 58 176 147 319 279 450 131 132 274 221 450 280 172 57
350 73 530 46z m-89 -596 c186 -35 330 -184 361 -374 31 -186 -75 -387 -247
-467 -36 -17 -83 -33 -105 -36 -22 -3 -39 -8 -36 -10 2 -2 32 -11 66 -19 204
-47 366 -222 402 -432 12 -69 9 -99 -36 -465 -52 -420 -61 -477 -83 -520 -24
-48 -85 -107 -137 -135 -51 -27 -52 -27 -266 -27 -214 0 -215 0 -266 27 -52
28 -113 87 -137 135 -22 43 -31 100 -83 520 -45 366 -48 396 -36 465 36 210
198 385 402 432 34 8 64 17 66 19 3 2 -14 7 -36 10 -22 3 -69 19 -105 36 -172
80 -278 281 -247 467 42 252 277 420 523 374z"/>
</g>
</svg>
