<svg xmlns="http://www.w3.org/2000/svg" xmlns:xlink="http://www.w3.org/1999/xlink" width="100" height="100" viewBox="0 0 100 100">
  <defs>
    <path id="path-8" fill-rule="evenodd" d="M42 5h31.68042289c4.96723522 0 9 4.03276478 9 9v53.36307804c0 4.96723522-4.03276478 9-9 9H42c-4.96723522 0-9-4.03276478-9-9V14c0-4.96723522 4.03276478-9 9-9z"/>
    <mask id="mask-9" x="0" y="0" maskContentUnits="userSpaceOnUse" maskUnits="userSpaceOnUse">
      <rect width="100" height="100" x="0" y="0" fill="black"/>
      <use fill="white" xlink:href="#path-8"/>
    </mask>
  </defs>
  <path fill="rgb(228,222,227)" fill-rule="evenodd" d="M9.23042592 7.78037966c3.12973157 0 5.67067651 2.54094495 5.67067651 5.67067652v26.27562047c0 3.12973157-2.54094494 5.67067652-5.67067651 5.67067652-3.12973157 0-5.67067652-2.54094495-5.67067652-5.67067652V13.45105618c0-3.12973157 2.54094495-5.67067652 5.67067652-5.67067652z"/>
  <path fill="rgb(228,222,227)" fill-rule="evenodd" d="M57.07083314 7.78037966c3.12973157 0 5.67067652 2.54094495 5.67067652 5.67067652v26.27562047c0 3.12973157-2.54094495 5.67067652-5.67067652 5.67067652-3.12973157 0-5.67067652-2.54094495-5.67067652-5.67067652V13.45105618c0-3.12973157 2.54094495-5.67067652 5.67067652-5.67067652z"/>
  <path fill="rgb(228,222,227)" fill-rule="evenodd" d="M24.52791102 7.78037966c3.12973157 0 5.67067651 2.54094495 5.67067651 5.67067652v44.1436086c0 3.12973157-2.54094494 5.67067652-5.67067651 5.67067652-3.12973157 0-5.67067652-2.54094495-5.67067652-5.67067652v-44.1436086c0-3.12973157 2.54094495-5.67067652 5.67067652-5.67067652z"/>
  <path fill="rgb(228,222,227)" fill-rule="evenodd" d="M42.58541961 7.78037966c3.12973157 0 5.67067652 2.54094495 5.67067652 5.67067652v36.62022397c0 3.12973157-2.54094495 5.67067652-5.67067652 5.67067652-3.12973157 0-5.67067652-2.54094495-5.67067652-5.67067652V13.45105618c0-3.12973157 2.54094495-5.67067652 5.67067652-5.67067652z"/>
  <path fill="rgb(228,222,227)" fill-rule="evenodd" d="M72.26038198 7.78037966c3.12973157 0 5.67067651 2.54094495 5.67067651 5.67067652v52.6074163c0 3.12973158-2.54094494 5.67067652-5.67067651 5.67067652-3.12973157 0-5.67067652-2.54094494-5.67067652-5.67067651V13.45105618c0-3.12973157 2.54094495-5.67067652 5.67067652-5.67067652z"/>
  <rect width="2.861" height="92.689" x="48.125" y="-44.499" fill="rgb(228,222,227)" rx="0" ry="0" transform="rotate(90.000032 49.55554092 1.84487148)"/>
  <path fill="rgb(228,222,227)" fill-rule="evenodd" d="M89.8898928 7.78037966c3.12973158 0 5.67067652 2.54094495 5.67067652 5.67067652v18.75218548c0 3.12973157-2.54094494 5.67067652-5.67067651 5.67067652-3.12973157 0-5.67067652-2.54094495-5.67067652-5.67067652V13.45105618c0-3.12973157 2.54094495-5.67067652 5.67067652-5.67067652z"/>
  <use fill-opacity="0" stroke="rgb(107,103,104)" stroke-linecap="butt" stroke-linejoin="miter" stroke-width="4" mask="url(#mask-9)" xlink:href="#path-8"/>
</svg>
