<svg xmlns="http://www.w3.org/2000/svg" xmlns:xlink="http://www.w3.org/1999/xlink" width="100" height="100" viewBox="0 0 100 100">
  <defs>
    <path id="path-11" fill-rule="evenodd" d="M63 14h18c4.96723522 0 9 4.03276478 9 9v37c0 4.96723522-4.03276478 9-9 9H63c-4.96723522 0-9-4.03276478-9-9V23c0-4.96723522 4.03276478-9 9-9z"/>
    <mask id="mask-12" x="0" y="0" maskContentUnits="userSpaceOnUse" maskUnits="userSpaceOnUse">
      <rect width="100" height="100" x="0" y="0" fill="black"/>
      <use fill="white" xlink:href="#path-11"/>
    </mask>
  </defs>
  <path fill="rgb(228,222,227)" fill-rule="evenodd" d="M4.07762722 18c2.25050373 0 4.07762722 1.8271235 4.07762722 4.07762722v31.84479911c0 2.25050373-1.82712349 4.07762722-4.07762722 4.07762722S0 56.17293005 0 53.92242633v-31.8447991C0 19.82712348 1.8271235 18 4.07762722 18z"/>
  <path fill="rgb(228,222,227)" fill-rule="evenodd" d="M37.07762722 18c2.25050373 0 4.07762722 1.8271235 4.07762722 4.07762722v31.84479911c0 2.25050373-1.82712349 4.07762722-4.07762722 4.07762722S33 56.17293005 33 53.92242633v-31.8447991C33 19.82712348 34.8271235 18 37.07762722 18z"/>
  <path fill="rgb(228,222,227)" fill-rule="evenodd" d="M15.07762722 18c2.25050373 0 4.07762722 1.8271235 4.07762722 4.07762722v50.84474556C19.15525444 75.1728765 17.32813095 77 15.07762722 77S11 75.1728765 11 72.92237278V22.07762722C11 19.8271235 12.8271235 18 15.07762722 18z"/>
  <path fill="rgb(228,222,227)" fill-rule="evenodd" d="M26.07762722 18c2.25050373 0 4.07762722 1.8271235 4.07762722 4.07762722v42.84474556C30.15525444 67.1728765 28.32813095 69 26.07762722 69S22 67.1728765 22 64.92237278V22.07762722C22 19.8271235 23.8271235 18 26.07762722 18z"/>
  <path fill="rgb(228,222,227)" fill-rule="evenodd" d="M72.07762722 18c2.25050373 0 4.07762722 1.8271235 4.07762722 4.07762722v38.84474556C76.15525444 63.1728765 74.32813095 65 72.07762722 65S68 63.1728765 68 60.92237278V22.07762722C68 19.8271235 69.8271235 18 72.07762722 18z"/>
  <path fill="rgb(228,222,227)" fill-rule="evenodd" d="M48.07762722 18c2.25050373 0 4.07762722 1.8271235 4.07762722 4.07762722v59.84474556C52.15525444 84.1728765 50.32813095 86 48.07762722 86S44 84.1728765 44 81.92237278V22.07762722C44 19.8271235 45.8271235 18 48.07762722 18z"/>
  <rect width="3.11" height="100.01" x="48.44" y="-39.409" fill="rgb(228,222,227)" rx="0" ry="0" transform="rotate(90.000032 49.995 10.59564998)"/>
  <path fill="rgb(228,222,227)" fill-rule="evenodd" d="M96.07762722 18c2.25050373 0 4.07762722 1.8271235 4.07762722 4.07762722v31.84479911c0 2.25050373-1.82712349 4.07762722-4.07762722 4.07762722S92 56.17293005 92 53.92242633v-31.8447991C92 19.82712348 93.8271235 18 96.07762722 18z"/>
  <path fill="rgb(228,222,227)" fill-rule="evenodd" d="M62.07762722 18c2.25050373 0 4.07762722 1.8271235 4.07762722 4.07762722v23.84474556C66.15525444 48.1728765 64.32813095 50 62.07762722 50S58 48.1728765 58 45.92237278V22.07762722C58 19.8271235 59.8271235 18 62.07762722 18z"/>
  <path fill="rgb(228,222,227)" fill-rule="evenodd" d="M82.07762722 18c2.25050373 0 4.07762722 1.8271235 4.07762722 4.07762722v38.84474556C86.15525444 63.1728765 84.32813095 65 82.07762722 65S78 63.1728765 78 60.92237278V22.07762722C78 19.8271235 79.8271235 18 82.07762722 18z"/>
  <use fill-opacity="0" stroke="rgb(107,103,104)" stroke-linecap="butt" stroke-linejoin="miter" stroke-width="4" mask="url(#mask-12)" xlink:href="#path-11"/>
</svg>
