<svg xmlns="http://www.w3.org/2000/svg" width="100" height="100" viewBox="0 0 100 100">
  <path fill="rgb(228,222,227)" fill-rule="evenodd" d="M6 3h64c1.10383005 0 2 .89616995 2 2s-.89616995 2-2 2H6c-1.10383005 0-2-.89616995-2-2s.89616995-2 2-2z"/>
  <path fill="rgb(228,222,227)" fill-rule="evenodd" d="M16 10h79c1.10383005 0 2 .89616995 2 2s-.89616995 2-2 2H16c-1.10383005 0-2-.89616995-2-2s.89616995-2 2-2z"/>
  <path fill="rgb(228,222,227)" fill-rule="evenodd" d="M26 17h56c1.10383005 0 2 .89616995 2 2s-.89616995 2-2 2H26c-1.10383005 0-2-.89616995-2-2s.89616995-2 2-2z"/>
  <path fill="rgb(228,222,227)" fill-rule="evenodd" d="M67.00002 25.99969488c-6.2e-7 1.10365344-.89602769 1.9996795-1.99968112 1.99967888l-49.00066-.00002752c-1.10365344-6.2e-7-1.9996795-.89602769-1.99967888-1.99968112 6.2e-7-1.10365344.89602769-1.9996795 1.99968112-1.99967888l49.00066.00002752c1.10365341 6e-7 1.99967948.89602766 1.99967888 1.9996811z"/>
  <path fill="rgb(228,222,227)" fill-rule="evenodd" d="M6 59h71c1.10383005 0 2 .89616995 2 2s-.89616995 2-2 2H6c-1.10383005 0-2-.89616995-2-2s.89616995-2 2-2z"/>
  <path fill="rgb(228,222,227)" fill-rule="evenodd" d="M6 66h78c1.10383005 0 2 .89616995 2 2s-.89616995 2-2 2H6c-1.10383005 0-2-.89616995-2-2s.89616995-2 2-2z"/>
  <path fill="rgb(228,222,227)" fill-rule="evenodd" d="M16 73h60c1.10383005 0 2 .89616995 2 2s-.89616995 2-2 2H16c-1.10383005 0-2-.89616995-2-2s.89616995-2 2-2z"/>
  <path fill="rgb(228,222,227)" fill-rule="evenodd" d="M94.00002 81.99969966c-6.2e-7 1.10365343-.89602769 1.9996795-1.99968112 1.99967887l-66.00066-.00003706c-1.10365344-6.2e-7-1.9996795-.8960277-1.99967888-1.99968113 6.2e-7-1.10365343.89602769-1.9996795 1.99968112-1.99967887l66.00066.00003706c1.10365341 6e-7 1.99967948.89602766 1.99967888 1.9996811z"/>
  <path fill="rgb(228,222,227)" fill-rule="evenodd" d="M86.00002 88.99970303c-6.2e-7 1.10365343-.89602769 1.9996795-1.99968112 1.99967887l-78.00066-.0000438C4.89602544 90.99933748 3.99999938 90.1033104 4 88.99965697c6.2e-7-1.10365343.89602769-1.9996795 1.99968112-1.99967887l78.00066.0000438c1.10365341 6e-7 1.99967948.89602766 1.99967888 1.9996811z"/>
  <path fill="rgb(228,222,227)" fill-rule="evenodd" d="M78.00002 95.99970078c-6.2e-7 1.10365344-.89602769 1.9996795-1.99968112 1.99967888l-70.00066-.00003932C4.89602544 97.99933972 3.99999938 97.10331265 4 95.99965922c6.2e-7-1.10365344.89602769-1.9996795 1.99968112-1.99967888l70.00066.00003932c1.10365341 6e-7 1.99967948.89602766 1.99967888 1.9996811z"/>
  <path fill="rgb(107,103,104)" fill-rule="evenodd" d="M65.00002 32.99969713c-6.2e-7 1.10365344-.89602769 1.9996795-1.99968112 1.99967888l-57.00066-.00003202C4.89602544 34.99934337 3.99999938 34.10331631 4 32.99966287c6.2e-7-1.10365344.89602769-1.9996795 1.99968112-1.99967888l57.00066.00003202c1.10365341 6e-7 1.99967948.89602765 1.99967888 1.9996811z"/>
  <path fill="rgb(107,103,104)" fill-rule="evenodd" d="M93.00002 39.99970219c-6.2e-7 1.10365343-.89602769 1.9996795-1.99968112 1.99967887l-75.00066-.00004212c-1.10365344-6.2e-7-1.9996795-.89602769-1.99967888-1.99968113 6.2e-7-1.10365343.89602769-1.9996795 1.99968112-1.99967887l75.00066.00004212c1.10365341 6e-7 1.99967948.89602766 1.99967888 1.9996811z"/>
  <path fill="rgb(107,103,104)" fill-rule="evenodd" d="M81.00002 46.99969882c-6.2e-7 1.10365343-.89602769 1.9996795-1.99968112 1.99967887l-63.00066-.00003538c-1.10365344-6.2e-7-1.9996795-.89602769-1.99967888-1.99968113 6.2e-7-1.10365343.89602769-1.9996795 1.99968112-1.99967887l63.00066.00003538c1.10365341 6e-7 1.99967948.89602766 1.99967888 1.9996811z"/>
  <path fill="rgb(107,103,104)" fill-rule="evenodd" d="M58.00002 53.99969516c-6.2e-7 1.10365344-.89602769 1.9996795-1.99968112 1.99967888l-50.00066-.00002808C4.89602544 55.99934534 3.99999938 55.10331827 4 53.99966484c6.2e-7-1.10365344.89602769-1.9996795 1.99968112-1.99967888l50.00066.00002808c1.10365341 6e-7 1.99967948.89602766 1.99967888 1.9996811z"/>
</svg>
