<?xml version="1.0" standalone="no"?>
<!DOCTYPE svg PUBLIC "-//W3C//DTD SVG 20010904//EN"
 "http://www.w3.org/TR/2001/REC-SVG-20010904/DTD/svg10.dtd">
<svg version="1.0" xmlns="http://www.w3.org/2000/svg"
 width="274.000000pt" height="184.000000pt" viewBox="0 0 274.000000 184.000000"
 preserveAspectRatio="xMidYMid meet">

<g transform="translate(0.000000,184.000000) scale(0.100000,-0.100000)"
fill="#000000" stroke="none">
<path d="M420 1822 c-88 -43 -265 -272 -329 -426 -121 -290 -117 -656 9 -959
68 -165 270 -415 345 -430 42 -8 75 15 75 54 0 23 -16 47 -79 114 -213 225
-301 453 -301 775 0 145 22 266 67 380 54 134 107 212 235 347 84 89 96 119
56 147 -28 20 -35 20 -78 -2z"/>
<path d="M2232 1818 c-29 -29 -14 -67 62 -148 145 -154 225 -295 272 -475 35
-135 44 -367 20 -499 -38 -199 -117 -350 -268 -513 -102 -108 -115 -135 -81
-168 35 -36 119 7 202 104 150 175 233 335 278 535 23 101 22 371 -1 489 -42
215 -143 422 -282 576 -88 98 -165 136 -202 99z"/>
<path d="M1145 1793 c-19 -3 -16 -8 21 -47 44 -47 74 -117 74 -176 0 -65 -30
-152 -110 -320 -108 -229 -125 -287 -125 -425 0 -106 1 -113 37 -188 59 -123
186 -237 265 -237 25 0 24 2 -18 29 -119 75 -158 193 -103 310 13 30 54 94 89
141 102 137 120 191 91 273 -13 36 -13 37 9 37 37 0 82 -46 106 -108 19 -48
23 -74 21 -164 l-1 -108 25 0 c40 0 66 52 59 120 -6 53 -6 54 10 33 52 -72 73
-174 56 -268 -12 -62 -60 -175 -89 -209 -9 -11 2 -6 25 12 62 48 99 95 139
174 142 283 100 667 -90 811 l-34 26 19 -49 c24 -63 24 -123 0 -175 -35 -77
-84 -95 -110 -39 -6 14 -16 70 -21 124 -17 163 -66 279 -148 351 -56 50 -144
81 -197 72z"/>
<path d="M940 227 c-35 -17 -40 -69 -8 -91 20 -14 80 -16 508 -16 428 0 488 2
508 16 32 22 27 74 -8 91 -36 18 -964 18 -1000 0z"/>
</g>
</svg>
