<svg xmlns="http://www.w3.org/2000/svg" xmlns:xlink="http://www.w3.org/1999/xlink" width="100" height="100" viewBox="0 0 100 100">
  <defs>
    <path id="path-10" fill-rule="evenodd" d="M51 12h31c4.96723522 0 9 4.03276478 9 9v58.00004c0 4.96723522-4.03276478 9-9 9H51c-4.96723522 0-9-4.03276478-9-9V21c0-4.96723522 4.03276478-9 9-9z"/>
    <mask id="mask-11" x="0" y="0" maskContentUnits="userSpaceOnUse" maskUnits="userSpaceOnUse">
      <rect width="100" height="100" x="0" y="0" fill="black"/>
      <use fill="white" xlink:href="#path-10"/>
    </mask>
  </defs>
  <path fill="rgb(228,222,227)" fill-rule="evenodd" d="M4.07762722 30.00001322c2.25050373 0 4.07762722 1.8271235 4.07762722 4.07762723v31.8447991c0 2.25050373-1.82712349 4.07762723-4.07762722 4.07762723S0 68.17294328 0 65.92243955v-31.8447991c0-2.25050373 1.8271235-4.07762723 4.07762722-4.07762723z"/>
  <path fill="rgb(228,222,227)" fill-rule="evenodd" d="M37.07762722 30.00001322c2.25050373 0 4.07762722 1.8271235 4.07762722 4.07762723v31.8447991c0 2.25050373-1.82712349 4.07762723-4.07762722 4.07762723S33 68.17294328 33 65.92243955v-31.8447991c0-2.25050373 1.8271235-4.07762723 4.07762722-4.07762723z"/>
  <path fill="rgb(228,222,227)" fill-rule="evenodd" d="M15.07762722 24.0000082c2.25050373 0 4.07762722 1.82712348 4.07762722 4.07762721V71.9224246c0 2.25050373-1.82712349 4.07762722-4.07762722 4.07762722S11 74.1729283 11 71.92242459V28.0776354c0-2.25050373 1.8271235-4.07762722 4.07762722-4.07762722z"/>
  <path fill="rgb(228,222,227)" fill-rule="evenodd" d="M26.07762722 28.00001155c2.25050373 0 4.07762722 1.82712349 4.07762722 4.07762722v35.84478246c0 2.25050373-1.82712349 4.07762722-4.07762722 4.07762722S22 70.17292496 22 67.92242123V32.07763877c0-2.25050373 1.8271235-4.07762722 4.07762722-4.07762722z"/>
  <path fill="rgb(228,222,227)" fill-rule="evenodd" d="M72.07762722 28.00001155c2.25050373 0 4.07762722 1.82712349 4.07762722 4.07762722v35.84478246c0 2.25050373-1.82712349 4.07762722-4.07762722 4.07762722S68 70.17292496 68 67.92242123V32.07763877c0-2.25050373 1.8271235-4.07762722 4.07762722-4.07762722z"/>
  <path fill="rgb(228,222,227)" fill-rule="evenodd" d="M50.07762722 18c2.25050373 0 4.07762722 1.8271235 4.07762722 4.07762722v55.84479924c0 2.25050373-1.82712349 4.07762722-4.07762722 4.07762722S46 80.1729302 46 77.92242646V22.07762722C46 19.8271235 47.8271235 18 50.07762722 18z"/>
  <path fill="rgb(228,222,227)" fill-rule="evenodd" d="M96.07762722 29.99999322c2.25050373 0 4.07762722 1.8271235 4.07762722 4.07762723v31.8447991c0 2.25050373-1.82712349 4.07762723-4.07762722 4.07762723S92 68.17292328 92 65.92241955v-31.8447991c0-2.25050373 1.8271235-4.07762723 4.07762722-4.07762723z"/>
  <path fill="rgb(228,222,227)" fill-rule="evenodd" d="M61.07762722 29.99999322c2.25050373 0 4.07762722 1.8271235 4.07762722 4.07762723v31.8447991c0 2.25050373-1.82712349 4.07762723-4.07762722 4.07762723S57 68.17292328 57 65.92241955v-31.8447991c0-2.25050373 1.8271235-4.07762723 4.07762722-4.07762723z"/>
  <path fill="rgb(228,222,227)" fill-rule="evenodd" d="M83.07762722 24.0000082c2.25050373 0 4.07762722 1.82712348 4.07762722 4.07762721V71.9224246c0 2.25050373-1.82712349 4.07762722-4.07762722 4.07762722S79 74.1729283 79 71.92242459V28.0776354c0-2.25050373 1.8271235-4.07762722 4.07762722-4.07762722z"/>
  <use fill-opacity="0" stroke="rgb(107,103,104)" stroke-linecap="butt" stroke-linejoin="miter" stroke-width="4" mask="url(#mask-11)" xlink:href="#path-10"/>
</svg>
