<svg xmlns="http://www.w3.org/2000/svg" width="100" height="100" viewBox="0 0 100 100">
  <path fill="rgb(228,222,227)" fill-rule="evenodd" d="M53-13h28.6434172c1.65574508 0 3 1.34425493 3 3V7c0 1.65574507-1.34425492 3-3 3H53c-1.65574507 0-3-1.34425493-3-3v-17c0-1.65574507 1.34425493-3 3-3z"/>
  <path fill="rgb(171,82,50)" fill-rule="evenodd" d="M53.1783014 13h28.6434172c1.65574508 0 3 1.34425493 3 3v17c0 1.65574507-1.34425492 3-3 3H53.1783014c-1.65574508 0-3-1.34425493-3-3V16c0-1.65574507 1.34425492-3 3-3z"/>
  <path fill="rgb(228,222,227)" fill-rule="evenodd" d="M53 65h28.6434172c1.65574508 0 3 1.34425493 3 3v17c0 1.65574507-1.34425492 3-3 3H53c-1.65574507 0-3-1.34425493-3-3V68c0-1.65574507 1.34425493-3 3-3z"/>
  <path fill="rgb(228,222,227)" fill-rule="evenodd" d="M53 39h28.6434172c1.65574508 0 3 1.34425493 3 3v17c0 1.65574507-1.34425492 3-3 3H53c-1.65574507 0-3-1.34425493-3-3V42c0-1.65574507 1.34425493-3 3-3z"/>
  <path fill="rgb(171,82,50)" fill-rule="evenodd" d="M40.0000207 23.00000702l-.0000014 2.49995c-6.2e-7 1.10383005-.89617108 1.9999995-2.00000113 1.99999888l-21.00002-.0000118c-1.10383004-6.2e-7-1.9999995-.89617107-1.99999887-2.00000112l.0000014-2.49995c6.2e-7-1.10383005.89617108-1.9999995 2.00000113-1.99999888l21.00002.0000118c1.10383004 6.2e-7 1.9999995.89617107 1.99999887 2.00000112z"/>
  <path fill="rgb(228,222,227)" fill-rule="evenodd" d="M40.0000207 49.00000702l-.0000014 2.49995c-6.2e-7 1.10383005-.89617108 1.9999995-2.00000113 1.99999888l-21.00002-.0000118c-1.10383004-6.2e-7-1.9999995-.89617107-1.99999887-2.00000112l.0000014-2.49995c6.2e-7-1.10383005.89617108-1.9999995 2.00000113-1.99999888l21.00002.0000118c1.10383004 6.2e-7 1.9999995.89617107 1.99999887 2.00000112z"/>
  <path fill="rgb(228,222,227)" fill-rule="evenodd" d="M40.0000207 75.00000702l-.0000014 2.49995c-6.2e-7 1.10383005-.89617108 1.9999995-2.00000113 1.99999888l-21.00002-.0000118c-1.10383004-6.2e-7-1.9999995-.89617107-1.99999887-2.00000112l.0000014-2.49995c6.2e-7-1.10383005.89617108-1.9999995 2.00000113-1.99999888l21.00002.0000118c1.10383004 6.2e-7 1.9999995.89617107 1.99999887 2.00000112z"/>
  <path fill="rgb(228,222,227)" fill-rule="evenodd" d="M40.0000207 99.00000702l-.0000014 2.49995c-6.2e-7 1.10383005-.89617108 1.9999995-2.00000113 1.99999888l-21.00002-.0000118c-1.10383004-6.2e-7-1.9999995-.89617107-1.99999887-2.00000112l.0000014-2.49995c6.2e-7-1.10383005.89617108-1.9999995 2.00000113-1.99999888l21.00002.0000118c1.10383004 6.2e-7 1.9999995.89617107 1.99999887 2.00000112z"/>
  <path fill="rgb(228,222,227)" fill-rule="evenodd" d="M40.0000207-.99999298l-.0000014 2.49995c-6.2e-7 1.10383005-.89617108 1.9999995-2.00000113 1.99999888l-21.00002-.0000118c-1.10383004-6.2e-7-1.9999995-.89617107-1.99999887-2.00000112l.0000014-2.49995c6.2e-7-1.10383005.89617108-1.9999995 2.00000113-1.99999888l21.00002.0000118c1.10383004 6.2e-7 1.9999995.89617107 1.99999887 2.00000112z"/>
  <path fill="rgb(228,222,227)" fill-rule="evenodd" d="M53 91h28.6434172c1.65574508 0 3 1.34425493 3 3v17c0 1.65574507-1.34425492 3-3 3H53c-1.65574507 0-3-1.34425493-3-3V94c0-1.65574507 1.34425493-3 3-3z"/>
</svg>
