<svg xmlns="http://www.w3.org/2000/svg" xmlns:xlink="http://www.w3.org/1999/xlink" width="100" height="100" viewBox="0 0 100 100">
  <defs>
    <ellipse id="ellipse-4" cx="48" cy="52" rx="14" ry="14"/>
    <mask id="mask-5" x="0" y="0" maskContentUnits="userSpaceOnUse" maskUnits="userSpaceOnUse">
      <rect width="100" height="100" x="0" y="0" fill="black"/>
      <use fill="white" xlink:href="#ellipse-4"/>
    </mask>
  </defs>
  <path fill="rgb(228,222,227)" fill-rule="evenodd" d="M17 24h25c1.65574507 0 3 1.34425493 3 3v27c0 1.65574507-1.34425493 3-3 3H17c-1.65574507 0-3-1.34425493-3-3V27c0-1.65574507 1.34425493-3 3-3z"/>
  <path fill="rgb(228,222,227)" fill-rule="evenodd" d="M7.6271772 34.07963618c-2.65773383-.02731615-3.96988882-3.24176215-2.09048742-5.1211625l21.83716627-21.837154c1.1715732-1.17157255 3.07106814-1.17157202 4.24264069.00000118L53.9071837 29.41202035c1.90042386 1.90042492.53531073 5.14878302-2.15215327 5.1211613L7.6271772 34.07963618z"/>
  <path fill="rgb(228,222,227)" fill-rule="evenodd" d="M11 46h77c1.65574507 0 3 1.34425493 3 3v43.24050633c0 1.65574507-1.34425493 3-3 3H11c-1.65574507 0-3-1.34425493-3-3V49c0-1.65574507 1.34425493-3 3-3z"/>
  <g>
    <use fill-opacity="0" stroke="rgb(107,103,104)" stroke-linecap="butt" stroke-linejoin="miter" stroke-width="10" mask="url(#mask-5)" xlink:href="#ellipse-4"/>
    <path fill="rgb(107,103,104)" fill-rule="evenodd" d="M54.55431655 61.2560047l1.55429445-1.25863767c.85783845-.69466104 2.11827107-.56218168 2.8129321.29565677l18.4138691 22.73932772c.69466104.85783846.56218168 2.11827107-.29565678 2.81293211l-1.55429444 1.25863767c-.85783846.69466104-2.11827107.56218168-2.81293211-.29565677L54.25865977 64.0689368c-.69466103-.85783846-.56218167-2.11827108.29565678-2.81293212z"/>
  </g>
</svg>
