<svg xmlns="http://www.w3.org/2000/svg" width="100" height="100" viewBox="0 0 100 100">
  <path fill="rgb(228,222,227)" fill-rule="evenodd" d="M92.73420394 8.00002408l-.00005345 95.15189873c-9.3e-7 1.65574507-1.3442566 2.99999925-3.00000168 2.99999832l-79.73417722-.00004479c-1.65574507-9.3e-7-2.99999924-1.3442566-2.99999831-3.00000168l.00005344-95.15189874c9.3e-7-1.65574507 1.34425661-2.99999924 3.00000169-2.99999831l79.73417721.00004478c1.65574508 9.3e-7 2.99999925 1.34425661 2.99999832 3.00000169z"/>
  <path fill="rgb(171,82,50)" fill-rule="evenodd" d="M94.25992142 30.94405904c.57470192 1.76875333-.39471634 3.67134167-2.16346968 4.2460436L9.2873255 62.09637763c-1.76875334.57470192-3.67134168-.39471633-4.2460436-2.16346967-.57470192-1.76875334.39471634-3.67134168 2.16346967-4.2460436l82.80912626-26.90627501c1.76875334-.57470192 3.67134168.39471634 4.2460436 2.16346968z"/>
  <ellipse cx="54.761" cy="36.94" fill="rgb(171,82,50)" rx="5.978" ry="5.94"/>
  <ellipse cx="48.239" cy="52.06" fill="rgb(171,82,50)" rx="5.978" ry="5.94"/>
  <ellipse cx="44.978" cy="40.18" fill="rgb(171,82,50)" rx="5.978" ry="5.94"/>
  <ellipse cx="58.022" cy="49.9" fill="rgb(171,82,50)" rx="5.978" ry="5.94"/>
  <ellipse cx="52" cy="44" fill="rgb(228,222,227)" rx="4" ry="4"/>
</svg>
