<svg xmlns="http://www.w3.org/2000/svg" width="100" height="100" viewBox="0 0 100 100">
  <path fill="rgb(228,222,227)" fill-rule="evenodd" d="M92.73420394 8.00002408l-.00005345 95.15189873c-9.3e-7 1.65574507-1.3442566 2.99999925-3.00000168 2.99999832l-79.73417722-.00004479c-1.65574507-9.3e-7-2.99999924-1.3442566-2.99999831-3.00000168l.00005344-95.15189874c9.3e-7-1.65574507 1.34425661-2.99999924 3.00000169-2.99999831l79.73417721.00004478c1.65574508 9.3e-7 2.99999925 1.34425661 2.99999832 3.00000169z"/>
  <path fill="rgb(107,103,104)" fill-rule="evenodd" d="M94.6092095 30.27977437c.76747898 2.36206105-.52711935 4.90285051-2.8891804 5.6703295L11.06089946 62.1578037c-2.36206106.76747899-4.90285051-.52711934-5.6703295-2.8891804-.76747899-2.36206106.52711934-4.90285051 2.8891804-5.6703295l80.65912963-26.20769983c2.36206106-.76747899 4.90285052.52711934 5.6703295 2.8891804z"/>
  <ellipse cx="54.761" cy="36.94" fill="rgb(107,103,104)" rx="5.978" ry="5.94"/>
  <ellipse cx="48.239" cy="52.06" fill="rgb(107,103,104)" rx="5.978" ry="5.94"/>
  <ellipse cx="44.978" cy="40.18" fill="rgb(107,103,104)" rx="5.978" ry="5.94"/>
  <ellipse cx="58.022" cy="49.9" fill="rgb(107,103,104)" rx="5.978" ry="5.94"/>
  <ellipse cx="52" cy="44" fill="rgb(228,222,227)" rx="4" ry="4"/>
</svg>
