<svg xmlns="http://www.w3.org/2000/svg" xmlns:xlink="http://www.w3.org/1999/xlink" width="100" height="100" viewBox="0 0 100 100">
  <defs>
    <path id="path-12" fill-rule="evenodd" d="M63 21h20c4.96723522 0 9 4.03276478 9 9v40c0 4.96723522-4.03276478 9-9 9H63c-4.96723522 0-9-4.03276478-9-9V30c0-4.96723522 4.03276478-9 9-9z"/>
    <mask id="mask-13" x="0" y="0" maskContentUnits="userSpaceOnUse" maskUnits="userSpaceOnUse">
      <rect width="100" height="100" x="0" y="0" fill="black"/>
      <use fill="white" xlink:href="#path-12"/>
    </mask>
  </defs>
  <path fill="rgb(228,222,227)" fill-rule="evenodd" d="M13.50000217 30c1.37978876 0 2.50000218 1.12021341 2.50000218 2.50000217v35.00001566c0 1.37978876-1.12021342 2.50000217-2.50000218 2.50000217S11 68.87980659 11 67.50001783V32.50000217C11 31.12021341 12.12021341 30 13.50000217 30z"/>
  <path fill="rgb(228,222,227)" fill-rule="evenodd" d="M41.50001783 30c1.37978876 0 2.50000217 1.12021341 2.50000217 2.50000217v35.00001566c0 1.37978876-1.12021341 2.50000217-2.50000217 2.50000217s-2.50000218-1.12021341-2.50000218-2.50000217V32.50000217C39.00001565 31.12021341 40.12022907 30 41.50001783 30z"/>
  <path fill="rgb(228,222,227)" fill-rule="evenodd" d="M22.5 24c1.37978756 0 2.5 1.12021244 2.5 2.5v47c0 1.37978756-1.12021244 2.5-2.5 2.5S20 74.87978756 20 73.5v-47c0-1.37978756 1.12021244-2.5 2.5-2.5z"/>
  <path fill="rgb(228,222,227)" fill-rule="evenodd" d="M32.5 28c1.37978756 0 2.5 1.12021244 2.5 2.5v39c0 1.37978756-1.12021244 2.5-2.5 2.5S30 70.87978756 30 69.5v-39c0-1.37978756 1.12021244-2.5 2.5-2.5z"/>
  <path fill="rgb(228,222,227)" fill-rule="evenodd" d="M68.5 28c1.37978756 0 2.5 1.12021244 2.5 2.5v39c0 1.37978756-1.12021244 2.5-2.5 2.5S66 70.87978756 66 69.5v-39c0-1.37978756 1.12021244-2.5 2.5-2.5z"/>
  <path fill="rgb(228,222,227)" fill-rule="evenodd" d="M50.5 18c1.37978756 0 2.5 1.12021244 2.5 2.5v59c0 1.37978756-1.12021244 2.5-2.5 2.5S48 80.87978756 48 79.5v-59c0-1.37978756 1.12021244-2.5 2.5-2.5z"/>
  <path fill="rgb(228,222,227)" fill-rule="evenodd" d="M4.5 37C5.87978756 37 7 38.12021244 7 39.5v21C7 61.87978756 5.87978756 63 4.5 63S2 61.87978756 2 60.5v-21C2 38.12021244 3.12021244 37 4.5 37z"/>
  <path fill="rgb(228,222,227)" fill-rule="evenodd" d="M86.49999783 29.99998C87.87978659 29.99998 89 31.12019341 89 32.49998217v35.00001566C89 68.87978659 87.87978659 70 86.49999783 70s-2.50000218-1.12021341-2.50000218-2.50000217V32.49998217c0-1.37978876 1.12021342-2.50000217 2.50000218-2.50000217z"/>
  <path fill="rgb(228,222,227)" fill-rule="evenodd" d="M59.50000217 29.99998c1.37978876 0 2.50000218 1.12021341 2.50000218 2.50000217v35.00001566C62.00000435 68.87978659 60.87979093 70 59.50000217 70S57 68.87978659 57 67.49999783V32.49998217c0-1.37978876 1.12021341-2.50000217 2.50000217-2.50000217z"/>
  <path fill="rgb(228,222,227)" fill-rule="evenodd" d="M77.5 24c1.37978756 0 2.5 1.12021244 2.5 2.5v47c0 1.37978756-1.12021244 2.5-2.5 2.5S75 74.87978756 75 73.5v-47c0-1.37978756 1.12021244-2.5 2.5-2.5z"/>
  <path fill="rgb(228,222,227)" fill-rule="evenodd" d="M95.5 37c1.37978756 0 2.5 1.12021244 2.5 2.5v21c0 1.37978756-1.12021244 2.5-2.5 2.5S93 61.87978756 93 60.5v-21c0-1.37978756 1.12021244-2.5 2.5-2.5z"/>
  <use fill-opacity="0" stroke="rgb(171,82,50)" stroke-linecap="butt" stroke-linejoin="miter" stroke-width="2" mask="url(#mask-13)" xlink:href="#path-12"/>
</svg>
