<svg xmlns="http://www.w3.org/2000/svg" width="100" height="100" viewBox="0 0 100 100">
  <g transform="rotate(-47.999888 50.48716128 50.24131641)">
    <g>
      <path fill="rgb(228,222,227)" fill-rule="evenodd" d="M15.70406798 73.7082137l-38.16447356-7.41846938c-1.625324-.315933-2.68838337-1.89198737-2.37245037-3.51731137l6.75604282-34.75660608c.315933-1.625324 1.89198737-2.68838336 3.51731137-2.37245037l38.16447356 7.41846938c1.625324.315933 2.68838337 1.89198737 2.37245037 3.51731137l-6.75604282 34.75660607c-.315933 1.625324-1.89198737 2.68838337-3.51731137 2.37245037z"/>
      <path fill="rgb(228,222,227)" fill-rule="evenodd" d="M44.06419643 52.82005934L12.3507748 46.6555554c-1.52880276-.29717105-2.52873145-1.7796301-2.2315604-3.30843287.29717104-1.52880276 1.7796301-2.52873146 3.30843286-2.23156041l31.71342162 6.16450393c1.52880276.29717104 2.52873145 1.7796301 2.2315604 3.30843287-.29717104 1.52880276-1.7796301 2.52873145-3.30843286 2.2315604z"/>
      <path fill="rgb(228,222,227)" fill-rule="evenodd" d="M40.44025281 67.12544259L8.7268312 60.96093866c-1.52880277-.29717105-2.52873146-1.7796301-2.23156041-3.30843287.29717104-1.52880277 1.7796301-2.52873146 3.30843287-2.23156041l31.71342161 6.16450392c1.52880277.29717105 2.52873146 1.77963011 2.23156041 3.30843287-.29717104 1.52880277-1.7796301 2.52873146-3.30843287 2.23156042z"/>
      <path fill="rgb(228,222,227)" fill-rule="evenodd" d="M38.69882157 37.25024171L7.97302904 47.23362255c-1.48119232.4812669-3.07446022-.33054567-3.55572712-1.811738-.4812669-1.48119231.33054567-3.07446021 1.81173798-3.55572712l30.72579253-9.98338083c1.48119232-.4812669 3.07446022.33054567 3.55572713 1.81173799.4812669 1.48119232-.33054567 3.07446022-1.811738 3.55572712z"/>
      <path fill="rgb(228,222,227)" fill-rule="evenodd" d="M36.8163092 74.27813421L5.10288758 68.11363028c-1.52880276-.29717104-2.52873145-1.7796301-2.2315604-3.30843287.29717104-1.52880276 1.7796301-2.52873145 3.30843286-2.2315604l31.71342162 6.16450392c1.52880276.29717104 2.52873146 1.7796301 2.23156041 3.30843287-.29717104 1.52880276-1.7796301 2.52873145-3.30843287 2.23156041z"/>
      <path fill="rgb(228,222,227)" fill-rule="evenodd" d="M47.68814004 61.16486623L15.97471843 55.0003623c-1.52880277-.29717104-2.52873146-1.7796301-2.23156042-3.30843287.29717105-1.52880276 1.77963011-2.52873145 3.30843287-2.2315604l31.71342162 6.16450392c1.52880276.29717105 2.52873146 1.7796301 2.23156041 3.30843287-.29717104 1.52880276-1.7796301 2.52873146-3.30843287 2.23156041z"/>
    </g>
    <g transform="matrix(-1 0 0 1 175.81890231 0)">
      <path fill="rgb(171,82,50)" fill-rule="evenodd" d="M90.54864772 74.30333008L52.38417416 66.8848607c-1.625324-.31593299-2.68838336-1.89198737-2.37245037-3.51731136l6.75604283-34.75660608c.31593299-1.625324 1.89198736-2.68838336 3.51731136-2.37245037l38.16447356 7.41846938c1.625324.31593299 2.68838337 1.89198737 2.37245038 3.51731136l-6.75604283 34.75660608c-.315933 1.625324-1.89198737 2.68838336-3.51731137 2.37245037z"/>
      <path fill="rgb(171,82,50)" fill-rule="evenodd" d="M118.90877617 53.41517572L87.19535455 47.2506718c-1.52880276-.29717105-2.52873145-1.77963011-2.2315604-3.30843287.29717104-1.52880277 1.7796301-2.52873146 3.30843286-2.23156041l31.71342162 6.16450392c1.52880276.29717105 2.52873146 1.77963011 2.23156041 3.30843287-.29717104 1.52880277-1.7796301 2.52873146-3.30843287 2.23156041z"/>
      <path fill="rgb(171,82,50)" fill-rule="evenodd" d="M115.28483256 67.72055897l-31.71342162-6.16450392c-1.52880276-.29717105-2.52873145-1.77963011-2.23156041-3.30843287.29717105-1.52880277 1.7796301-2.52873146 3.30843287-2.23156042l31.71342162 6.16450393c1.52880276.29717105 2.52873145 1.7796301 2.2315604 3.30843287-.29717104 1.52880277-1.7796301 2.52873146-3.30843286 2.23156041z"/>
      <path fill="rgb(171,82,50)" fill-rule="evenodd" d="M113.54340131 37.8453581l-30.72579253 9.98338083c-1.48119232.4812669-3.07446022-.33054567-3.55572712-1.81173799-.4812669-1.48119232.33054567-3.07446022 1.81173799-3.55572712l30.72579253-9.98338083c1.48119231-.4812669 3.07446022.33054567 3.55572712 1.81173799.4812669 1.48119232-.33054567 3.07446022-1.81173799 3.55572712z"/>
      <path fill="rgb(171,82,50)" fill-rule="evenodd" d="M111.66088894 74.8732506l-31.71342161-6.16450393c-1.52880277-.29717105-2.52873146-1.7796301-2.23156041-3.30843287.29717104-1.52880276 1.7796301-2.52873146 3.30843287-2.23156041l31.71342161 6.16450393c1.52880277.29717104 2.52873146 1.7796301 2.23156041 3.30843287-.29717104 1.52880276-1.7796301 2.52873145-3.30843287 2.2315604z"/>
      <path fill="rgb(171,82,50)" fill-rule="evenodd" d="M122.53271978 61.75998262l-31.71342161-6.16450393c-1.52880277-.29717104-2.52873146-1.7796301-2.23156041-3.30843287.29717104-1.52880276 1.7796301-2.52873145 3.30843287-2.2315604l31.71342161 6.16450392c1.52880277.29717104 2.52873146 1.7796301 2.23156041 3.30843287-.29717104 1.52880276-1.7796301 2.52873145-3.30843287 2.2315604z"/>
    </g>
  </g>
</svg>
